<?xml version="1.0" standalone="no"?>
<!DOCTYPE svg PUBLIC "-//W3C//DTD SVG 20010904//EN"
 "http://www.w3.org/TR/2001/REC-SVG-20010904/DTD/svg10.dtd">
<svg version="1.0" xmlns="http://www.w3.org/2000/svg"
 width="992.000000pt" height="1056.000000pt" viewBox="0 0 992.000000 1056.000000"
 preserveAspectRatio="xMidYMid meet">

<g transform="translate(0.000000,1056.000000) scale(0.100000,-0.100000)"
fill="#000000" stroke="none">
<path d="M3760 10545 c-25 -7 -72 -18 -105 -24 -33 -7 -113 -23 -179 -37 -65
-13 -159 -31 -210 -39 -50 -9 -127 -25 -171 -35 -44 -11 -111 -24 -150 -30
-38 -6 -122 -22 -185 -36 -63 -14 -167 -37 -230 -51 -141 -31 -229 -63 -309
-111 -137 -83 -218 -168 -291 -306 -89 -166 -104 -331 -56 -581 15 -77 46
-230 68 -340 48 -236 53 -271 40 -279 -10 -6 -78 37 -172 108 -25 19 -50 35
-56 35 -6 1 -28 12 -48 26 -21 14 -81 37 -134 52 -83 23 -117 27 -237 27 -123
1 -149 -2 -210 -23 -74 -26 -171 -72 -219 -106 -45 -32 -147 -136 -196 -201
-24 -32 -75 -96 -112 -141 -37 -45 -68 -85 -68 -88 0 -4 -18 -28 -40 -53 -69
-81 -256 -321 -314 -402 -80 -114 -115 -169 -125 -203 -7 -20 -21 -42 -32 -47
-18 -10 -19 -24 -19 -229 0 -204 1 -219 20 -236 10 -9 25 -34 31 -54 20 -60
97 -170 172 -246 75 -74 99 -95 284 -254 104 -89 113 -99 113 -131 0 -19 -10
-55 -21 -80 -22 -47 -69 -190 -113 -345 -99 -347 -146 -809 -126 -1239 11
-231 52 -565 94 -758 28 -127 132 -469 165 -542 12 -25 21 -48 21 -51 0 -3 9
-25 19 -48 10 -23 40 -88 65 -144 92 -206 260 -489 400 -676 221 -294 628
-694 882 -867 250 -170 366 -240 549 -329 168 -82 299 -141 313 -141 5 0 34
-11 63 -23 109 -48 318 -117 399 -132 19 -3 62 -15 95 -25 33 -11 92 -24 130
-31 39 -6 95 -17 125 -25 111 -27 494 -58 725 -57 493 0 994 88 1390 243 44
17 104 40 133 50 29 11 65 26 80 34 15 8 97 49 182 92 85 42 166 85 179 95 13
11 28 19 34 19 5 0 31 16 57 35 26 19 55 35 63 35 21 0 47 -38 47 -69 0 -13 8
-49 17 -80 15 -50 32 -71 162 -204 156 -158 205 -195 316 -241 65 -28 79 -30
213 -31 92 -1 147 -6 154 -13 6 -6 15 -62 19 -124 7 -102 11 -118 43 -181 45
-85 96 -148 158 -192 60 -44 199 -80 269 -70 40 6 51 3 68 -14 12 -12 21 -32
21 -46 0 -79 69 -192 172 -279 l65 -56 365 0 c293 0 372 3 400 14 18 8 90 20
158 26 264 24 411 49 479 81 102 47 230 183 231 245 0 12 9 33 20 47 18 23 20
40 20 176 0 114 -3 150 -12 149 -9 -2 -16 31 -25 112 -6 63 -19 167 -28 230
-8 63 -20 156 -25 206 -5 50 -16 127 -24 170 -8 43 -20 125 -26 182 -15 140
-49 248 -98 314 -49 65 -155 167 -336 323 -76 66 -198 172 -272 235 -73 63
-190 165 -260 225 -71 61 -169 146 -219 190 -49 44 -102 88 -116 97 -14 9 -71
58 -126 110 -55 51 -133 121 -172 156 -39 35 -71 71 -71 81 0 9 16 55 36 101
20 47 44 112 54 145 18 57 31 100 67 205 58 174 127 514 160 785 25 209 25
627 0 860 -24 225 -75 504 -121 665 -87 303 -142 444 -280 720 -130 257 -239
428 -415 650 -84 106 -213 251 -289 326 -45 45 -83 90 -83 100 -2 38 3 58 27
95 13 21 24 42 24 46 0 5 11 25 25 45 26 38 67 112 92 163 8 17 21 41 29 55 7
14 44 85 80 159 103 205 123 336 85 536 -33 172 -107 301 -241 421 -81 72
-134 103 -460 277 -36 19 -99 52 -140 74 -621 331 -637 338 -835 338 -114 -1
-142 -4 -225 -29 -52 -16 -117 -40 -145 -54 -115 -57 -268 -208 -328 -321 -44
-84 -111 -191 -128 -207 -27 -24 -38 -9 -49 62 -77 522 -102 599 -244 766 -64
75 -132 127 -235 179 l-56 29 -355 -1 c-252 -1 -368 -5 -400 -14z m586 -439
c105 -53 161 -145 191 -316 8 -47 39 -210 69 -363 30 -152 54 -285 54 -295 0
-10 -14 -31 -31 -48 l-30 -29 -262 -7 c-144 -4 -316 -15 -382 -24 -66 -9 -163
-22 -215 -28 -208 -28 -467 -94 -690 -176 -47 -18 -105 -38 -130 -46 -47 -15
-58 -20 -240 -107 -63 -30 -125 -57 -138 -61 -32 -10 -49 7 -57 57 -4 23 -15
80 -25 127 -11 47 -31 150 -45 230 -15 80 -38 201 -53 270 -17 82 -26 158 -26
220 -1 89 1 98 31 150 18 31 45 68 61 83 47 45 145 86 245 102 50 8 108 19
127 25 19 6 78 17 130 26 52 8 122 21 155 29 33 7 103 21 155 30 52 9 147 27
210 40 118 24 330 64 478 90 46 8 109 21 140 29 120 33 203 30 278 -8z m1829
-542 c105 -53 258 -134 340 -179 83 -45 197 -108 255 -139 183 -99 299 -174
329 -212 31 -40 44 -100 38 -184 -5 -82 -19 -113 -142 -325 -36 -60 -71 -124
-80 -140 -19 -38 -90 -85 -127 -85 -26 0 -83 33 -160 92 -20 16 -81 54 -135
85 -54 30 -120 68 -148 84 -63 36 -268 136 -360 177 -104 45 -177 72 -370 137
-129 43 -215 108 -215 163 0 15 11 43 24 63 13 19 32 51 41 70 9 19 28 55 43
81 15 26 56 99 91 163 78 140 120 191 180 218 125 55 166 48 396 -69z m-1460
-1005 c213 -15 613 -94 730 -143 22 -9 56 -21 75 -26 56 -14 182 -59 220 -79
19 -10 46 -22 60 -26 72 -22 339 -156 443 -222 37 -24 70 -43 73 -43 9 0 153
-99 236 -164 44 -33 94 -71 110 -82 103 -75 344 -308 481 -464 53 -61 139
-173 197 -256 14 -19 34 -47 46 -62 11 -15 31 -45 44 -67 12 -22 53 -92 90
-155 224 -383 350 -762 421 -1265 32 -227 36 -580 10 -835 -12 -113 -28 -236
-36 -275 -8 -38 -19 -99 -25 -135 -18 -103 -130 -476 -156 -517 -22 -36 -54
-27 -116 30 -143 132 -227 206 -278 244 -30 23 -71 56 -90 73 -19 18 -62 55
-95 83 -128 111 -128 110 -100 216 22 87 54 318 67 489 24 323 -33 734 -149
1067 -46 135 -172 399 -247 520 -83 133 -287 380 -420 509 -138 133 -363 307
-454 352 -8 4 -50 29 -95 55 -45 27 -86 49 -90 49 -5 0 -21 8 -35 18 -25 16
-65 34 -231 102 -126 51 -369 119 -516 144 -213 36 -549 47 -785 26 -198 -18
-432 -71 -620 -140 -47 -17 -99 -35 -116 -41 -81 -25 -417 -207 -524 -285
-273 -196 -506 -432 -702 -709 -79 -112 -201 -331 -252 -451 -43 -104 -133
-368 -142 -419 -3 -22 -14 -76 -24 -120 -44 -193 -59 -622 -31 -885 36 -347
182 -758 381 -1075 185 -295 477 -605 739 -786 142 -98 173 -119 178 -119 3 0
17 -8 31 -19 40 -27 217 -119 275 -142 29 -12 79 -31 112 -44 33 -12 78 -30
100 -38 61 -24 142 -48 225 -67 41 -10 102 -25 135 -33 162 -44 614 -60 880
-32 155 16 352 55 463 91 40 13 82 24 93 24 19 0 182 -134 386 -316 40 -36 94
-82 120 -103 80 -63 163 -146 163 -162 0 -23 -98 -70 -340 -163 -253 -97 -636
-180 -946 -206 -153 -13 -382 -12 -559 0 -144 10 -447 58 -545 85 -30 8 -93
24 -140 36 -89 22 -210 61 -320 103 -36 13 -94 36 -131 49 -84 32 -134 57
-369 184 -89 48 -327 205 -420 277 -407 316 -774 760 -995 1203 -29 59 -67
142 -85 183 -17 41 -42 100 -56 130 -13 30 -44 127 -69 215 -24 88 -53 192
-64 230 -62 219 -106 635 -97 925 6 223 36 504 70 665 31 144 93 378 116 435
10 25 32 83 50 130 18 47 38 96 45 110 26 50 75 158 75 164 0 10 80 153 137
243 18 29 33 55 33 58 0 8 98 149 146 211 21 28 52 68 69 90 159 210 415 455
710 679 43 33 243 163 303 197 73 42 239 125 332 167 52 23 104 47 115 52 11
5 54 21 95 35 41 14 120 42 175 61 141 49 334 97 515 127 133 22 227 31 510
49 59 4 200 -1 385 -14z m-3220 -139 c25 -12 63 -36 85 -54 21 -17 69 -53 106
-81 143 -106 151 -126 77 -189 -166 -142 -507 -506 -638 -681 -40 -54 -86
-120 -152 -220 -139 -210 -126 -199 -178 -166 -60 38 -256 213 -282 253 -23
33 -28 55 -32 116 -6 124 6 147 224 419 40 51 106 137 147 190 40 54 79 105
86 113 8 8 45 56 84 105 109 141 121 154 163 182 54 36 86 43 182 39 59 -3 95
-10 128 -26z m3301 -1223 c236 -47 410 -108 624 -220 241 -125 492 -337 683
-577 115 -143 252 -398 305 -566 74 -236 102 -423 103 -689 0 -316 -37 -521
-142 -787 -21 -54 -36 -104 -33 -113 7 -17 205 -191 418 -369 39 -32 85 -70
101 -85 26 -23 70 -60 189 -161 16 -14 37 -32 46 -40 8 -8 54 -46 100 -85 47
-38 110 -93 140 -122 30 -29 69 -63 85 -77 85 -69 191 -161 440 -381 39 -34
104 -90 145 -125 41 -35 95 -83 120 -106 25 -23 115 -102 200 -175 85 -74 166
-143 180 -155 14 -12 81 -70 150 -129 69 -59 127 -110 130 -114 3 -4 55 -49
115 -101 61 -52 133 -115 160 -141 28 -26 66 -60 85 -75 61 -48 121 -108 135
-134 15 -30 49 -223 65 -370 6 -58 19 -157 30 -220 10 -63 21 -146 25 -185 4
-38 15 -112 26 -164 26 -128 25 -169 -3 -181 -30 -12 -207 -35 -448 -60 -107
-11 -253 -27 -323 -37 -147 -19 -162 -15 -161 38 0 38 31 178 68 311 23 83 23
89 8 108 l-17 21 -225 -21 c-124 -11 -256 -25 -295 -30 -111 -14 -105 -31
-105 312 0 275 -1 289 -20 308 -24 24 -10 24 -166 1 -71 -11 -204 -25 -296
-32 -203 -15 -218 -11 -328 90 l-75 68 -5 216 c-4 178 -8 219 -21 232 -12 13
-59 16 -275 21 l-259 7 -50 37 c-77 59 -103 87 -113 122 -5 19 -4 125 0 242 5
115 7 220 4 232 -4 14 -18 26 -38 32 -18 6 -166 13 -328 17 -288 6 -352 13
-367 40 -5 7 -44 43 -88 80 -44 38 -89 77 -100 89 -44 47 -193 166 -221 176
-33 13 -68 8 -179 -25 -186 -56 -479 -90 -680 -79 -183 10 -502 79 -650 141
-141 58 -302 146 -421 228 -173 119 -464 418 -545 561 -9 16 -33 55 -53 88
-69 111 -156 294 -156 328 0 7 -9 33 -20 56 -28 63 -69 254 -86 401 -27 241
-14 586 28 746 11 44 24 100 29 124 10 50 47 150 83 226 66 138 130 262 145
280 9 11 38 53 65 93 54 81 171 218 261 305 231 225 554 413 875 509 72 22
130 34 350 72 14 2 120 3 235 1 177 -2 230 -7 341 -28z"/>
<path d="M3485 6201 c-194 -71 -278 -138 -388 -309 -16 -24 -41 -86 -58 -139
-24 -81 -29 -112 -29 -204 0 -158 34 -258 147 -429 54 -83 242 -196 383 -231
260 -65 565 71 712 317 102 170 126 369 68 550 -37 116 -83 189 -176 281 -78
77 -144 116 -281 164 -72 25 -97 29 -190 29 -94 0 -119 -4 -188 -29z"/>
</g>
</svg>
