<svg xmlns="http://www.w3.org/2000/svg" xmlns:xlink="http://www.w3.org/1999/xlink" width="102.576" height="111.249" viewBox="0 0 102.576 111.249">
  <defs>
    <clipPath id="clip-path">
      <rect id="Rectangle_714" data-name="Rectangle 714" width="102.576" height="111.249" transform="translate(0 0)" fill="none"/>
    </clipPath>
  </defs>
  <g id="Groupe_529" data-name="Groupe 529" transform="translate(0 -0.004)">
    <g id="Groupe_528" data-name="Groupe 528" transform="translate(0 0.004)" clip-path="url(#clip-path)">
      <path id="Tracé_14316" data-name="Tracé 14316" d="M102.543,104.311l-1.35-11.7a5.02,5.02,0,0,0-1.709-3.227l-16.123-13.9a5.017,5.017,0,0,0,1.089-1.66,41.928,41.928,0,0,0-9.3-45.244q-.375-.375-.757-.739a8.129,8.129,0,0,0,1.545-2.07l1.974-3.786A8.1,8.1,0,0,0,74.474,11.05L64.78,6A8.1,8.1,0,0,0,53.848,9.435l-1.193,2.288L51.6,6.5A8.1,8.1,0,0,0,42.049.166l-16.6,3.359a8.1,8.1,0,0,0-6.336,9.55l1.509,7.456-1.486-1.172A8.1,8.1,0,0,0,7.755,20.7L1.738,28.326A8.113,8.113,0,0,0,3.081,39.708L5.7,41.778a5.015,5.015,0,0,0,.935.583A41.975,41.975,0,0,0,61.817,96.9c.891-.377,1.787-.793,2.663-1.238A5.018,5.018,0,0,0,66.494,93.8c.134.011.269.017.4.017h.1l.746-.014,0,.067a5.02,5.02,0,0,0,1.776,3.723l1.968,1.666a5.021,5.021,0,0,0,3.244,1.189q.208,0,.417-.017l1.755-.146.03,1.367a5.02,5.02,0,0,0,1.772,3.718l.05.042a5.02,5.02,0,0,0,3.767,1.164,5.021,5.021,0,0,0,5.677,4.636l10.025-1.347a5.021,5.021,0,0,0,4.319-5.551" transform="translate(0 -0.005)" fill="#d70011"/>
      <path id="Tracé_14317" data-name="Tracé 14317" d="M314.442,445.749l-.58,5.572,1.878,1.59,5.753-.111.11,5.074,1.969,1.666,7.073-.589.149,6.7.05.042,6.7-.894-1.174,5.547L346.4,469l-1.35-11.7-30.922-26.662A21.625,21.625,0,1,0,302.2,441.446l4.935,4.177Zm-27.652-21.572a7.051,7.051,0,1,1,7.051-7.051,7.051,7.051,0,0,1-7.051,7.051" transform="translate(-248.842 -364.121)" fill="#efe525"/>
      <path id="Tracé_14318" data-name="Tracé 14318" d="M142.6,304.253A28.212,28.212,0,1,1,160.6,285.36l7.149,5.86a36.909,36.909,0,1,0-19.928,20.321q1.2-.506,2.346-1.091Z" transform="translate(-87.957 -219.269)" fill="#efe525"/>
      <path id="Tracé_14319" data-name="Tracé 14319" d="M637.943,123.466a41.774,41.774,0,0,1,8.687,4.97,3.068,3.068,0,0,0,.983-1.112l1.974-3.786a3.083,3.083,0,0,0-1.308-4.159l-9.693-5.054a3.083,3.083,0,0,0-4.159,1.308l-1.974,3.786a3.07,3.07,0,0,0-.277,2.088,41.791,41.791,0,0,1,5.768,1.959" transform="translate(-576.126 -103.881)" fill="#efe525"/>
      <path id="Tracé_14320" data-name="Tracé 14320" d="M272.332,71.529a3.071,3.071,0,0,0,.5,1.163q1.486-.773,3.04-1.431a41.7,41.7,0,0,1,16.334-3.3q1.4,0,2.792.091a3.075,3.075,0,0,0-.022-1.1L293.4,59.169a3.083,3.083,0,0,0-3.633-2.41l-16.6,3.359a3.083,3.083,0,0,0-2.41,3.633Z" transform="translate(-246.725 -51.676)" fill="#efe525"/>
      <path id="Tracé_14321" data-name="Tracé 14321" d="M57.828,268.71l2.623,2.07a41.868,41.868,0,0,1,7-9.259,42.415,42.415,0,0,1,3.206-2.9c-.072-.069-.147-.134-.226-.2l-2.768-2.184a3.083,3.083,0,0,0-4.33.511l-6.016,7.625a3.083,3.083,0,0,0,.511,4.33" transform="translate(-51.637 -232.949)" fill="#efe525"/>
    </g>
  </g>
</svg>
