<?xml version="1.0" standalone="no"?>
<!DOCTYPE svg PUBLIC "-//W3C//DTD SVG 20010904//EN"
 "http://www.w3.org/TR/2001/REC-SVG-20010904/DTD/svg10.dtd">
<svg version="1.0" xmlns="http://www.w3.org/2000/svg"
 width="716.000000pt" height="348.000000pt" viewBox="0 0 716.000000 348.000000"
 preserveAspectRatio="xMidYMid meet">

<g transform="translate(0.000000,348.000000) scale(0.100000,-0.100000)"
fill="#000000" stroke="none">
<path d="M1460 3405 c-211 -32 -324 -68 -525 -166 -184 -90 -290 -168 -442
-321 -145 -147 -220 -251 -313 -438 -197 -394 -228 -845 -89 -1273 52 -158
166 -376 252 -483 91 -112 127 -152 203 -223 124 -114 248 -200 393 -271 258
-127 454 -173 751 -174 231 -1 387 25 580 96 425 157 770 475 958 885 90 195
136 388 148 622 8 146 0 182 -47 206 -42 22 -67 18 -100 -14 -27 -28 -29 -34
-29 -115 0 -143 -35 -351 -85 -496 -51 -149 -174 -360 -279 -480 -232 -262
-494 -417 -836 -494 -468 -105 -986 43 -1344 384 -185 176 -314 382 -394 630
-159 491 -49 1048 282 1424 151 172 292 284 472 374 149 76 185 88 424 144 36
8 125 12 260 12 184 -1 216 -3 315 -27 143 -34 218 -58 293 -96 89 -45 141
-42 167 10 20 38 19 72 -5 102 -17 21 -62 43 -74 35 -2 -2 -12 5 -22 14 -43
38 -276 107 -454 133 -115 17 -344 17 -460 0z"/>
<path d="M1235 2625 c-5 -2 -28 -9 -50 -14 -49 -13 -168 -82 -213 -125 -45
-43 -108 -142 -134 -212 -31 -82 -31 -263 -1 -344 98 -266 374 -411 644 -341
l74 20 84 -82 c46 -45 101 -99 121 -121 l36 -39 77 2 77 1 0 -79 c0 -97 8
-104 108 -99 l67 3 0 -75 c0 -41 4 -81 8 -87 5 -9 35 -13 87 -13 l79 0 3 -82
3 -83 45 -3 c63 -5 202 16 218 31 11 11 11 38 1 148 l-12 134 -363 363 -362
364 15 41 c8 23 17 85 20 137 9 157 -32 276 -133 388 -62 69 -159 131 -243
156 -49 14 -226 22 -256 11z m6 -211 c39 -19 77 -69 85 -110 10 -53 -11 -107
-56 -148 -37 -33 -45 -36 -100 -36 -52 0 -64 4 -95 31 -83 73 -88 167 -12 237
51 48 116 57 178 26z m876 -942 c180 -180 293 -300 293 -312 0 -19 -33 -44
-50 -38 -8 3 -329 320 -554 547 l-69 69 23 32 c22 30 23 31 43 13 12 -10 153
-150 314 -311z"/>
</g>
</svg>
