<?xml version="1.0" standalone="no"?>
<!DOCTYPE svg PUBLIC "-//W3C//DTD SVG 20010904//EN"
 "http://www.w3.org/TR/2001/REC-SVG-20010904/DTD/svg10.dtd">
<svg version="1.0" xmlns="http://www.w3.org/2000/svg"
 width="1080.000000pt" height="1140.000000pt" viewBox="0 0 1080.000000 1140.000000"
 preserveAspectRatio="xMidYMid meet">

<g transform="translate(0.000000,1140.000000) scale(0.100000,-0.100000)"
fill="#000000" stroke="none">
<path d="M5160 10847 c-118 -78 -345 -228 -505 -333 -159 -105 -564 -373 -900
-594 -335 -221 -734 -484 -885 -584 -151 -99 -385 -254 -520 -343 -241 -159
-380 -250 -1117 -737 l-373 -246 0 -501 c0 -397 3 -500 13 -496 6 2 185 119
397 259 212 140 466 308 565 373 99 65 326 215 505 333 179 118 444 293 590
389 146 96 403 266 571 376 168 111 409 270 535 353 491 324 855 564 984 649
74 48 187 123 251 166 l117 78 148 -98 c82 -53 241 -158 354 -233 530 -349
693 -457 930 -613 140 -93 359 -236 485 -320 127 -83 642 -423 1145 -755 1382
-912 1444 -952 1458 -957 9 -4 12 99 12 495 l0 501 -262 173 c-144 95 -386
255 -538 355 -512 338 -774 510 -1180 778 -223 148 -488 323 -590 390 -102 67
-279 184 -395 260 -115 76 -307 202 -425 280 -118 78 -357 235 -530 350 -549
363 -599 395 -612 395 -7 0 -110 -64 -228 -143z"/>
<path d="M5145 9045 c-199 -32 -338 -76 -520 -166 -167 -83 -288 -171 -440
-324 -346 -344 -502 -743 -505 -1290 l-1 -90 -355 -165 -356 -165 5 -770 c5
-799 6 -823 52 -1080 86 -475 305 -955 615 -1345 104 -132 344 -372 475 -476
55 -43 174 -132 265 -197 91 -64 237 -169 325 -232 88 -64 171 -124 185 -133
14 -9 120 -85 235 -168 116 -83 222 -158 237 -168 l27 -18 223 159 c595 425
910 651 983 706 378 286 680 654 890 1082 126 256 201 476 255 745 56 277 61
379 58 1178 l-3 723 -295 138 c-162 76 -321 150 -352 164 l-58 26 0 157 c0
365 -89 668 -282 963 -244 371 -649 642 -1094 732 -141 28 -434 35 -569 14z
m440 -400 c286 -46 514 -163 721 -369 207 -208 323 -433 369 -721 14 -84 20
-185 11 -185 -2 0 -48 21 -102 46 -291 135 -507 200 -834 251 -161 24 -556 24
-725 -1 -303 -44 -524 -110 -810 -240 l-120 -54 -3 54 c-7 119 56 360 134 516
91 181 259 374 426 489 151 104 343 182 508 209 41 6 82 13 90 15 46 9 258 3
335 -10z m68 -1330 c225 -26 417 -74 606 -150 47 -19 331 -149 631 -289 l545
-254 0 -664 c0 -721 -1 -738 -61 -1003 -111 -492 -361 -944 -718 -1301 -143
-143 -226 -207 -661 -519 -198 -142 -415 -298 -483 -347 l-124 -88 -61 43
c-277 194 -941 676 -1019 739 -130 106 -326 311 -430 449 -318 425 -500 912
-538 1438 -5 75 -10 386 -10 692 l0 556 188 88 c204 96 533 249 822 382 183
85 317 134 468 172 82 21 295 58 372 64 119 9 358 5 473 -8z"/>
<path d="M5230 7054 c-19 -2 -77 -9 -129 -15 -179 -21 -411 -88 -584 -168
-181 -85 -511 -238 -662 -308 -88 -41 -180 -84 -205 -97 l-45 -22 1 -535 c1
-577 7 -664 59 -893 138 -605 479 -1098 1026 -1483 100 -71 563 -403 634 -456
28 -20 55 -37 61 -37 6 0 104 66 216 148 113 81 225 161 249 178 382 271 493
359 636 505 122 125 190 210 285 354 148 225 264 488 327 746 62 255 64 272
68 899 l4 575 -153 72 c-587 275 -814 380 -892 409 -110 43 -290 90 -416 110
-92 14 -409 26 -480 18z m300 -635 c192 -37 378 -201 456 -404 36 -92 45 -266
20 -365 -33 -133 -111 -257 -213 -341 l-58 -48 -5 -443 c-5 -442 -5 -443 -29
-488 -42 -81 -88 -127 -159 -162 -60 -30 -75 -33 -157 -33 -84 0 -95 2 -153
34 -66 36 -121 91 -152 151 -35 70 -40 131 -40 544 l0 403 -40 28 c-132 91
-230 275 -245 460 -20 245 123 498 344 609 140 71 263 86 431 55z"/>
<path d="M2104 7417 c-177 -117 -329 -218 -338 -226 -16 -14 -17 -76 -13 -990
5 -1035 6 -1076 57 -1389 89 -553 305 -1115 613 -1597 286 -447 665 -845 1107
-1164 52 -37 320 -229 595 -426 275 -197 588 -422 695 -498 297 -213 387 -277
394 -277 3 0 6 186 6 413 l-1 412 -62 44 c-34 25 -237 170 -451 324 -214 153
-399 285 -410 294 -533 381 -629 457 -820 647 -508 505 -851 1157 -985 1871
-54 285 -54 294 -60 1577 l-6 1196 -321 -211z"/>
<path d="M8340 6473 c0 -694 -4 -1206 -10 -1278 -30 -355 -127 -747 -267
-1080 -208 -493 -533 -942 -938 -1294 -134 -116 -267 -215 -1010 -746 -60 -43
-173 -124 -250 -180 -77 -55 -177 -127 -222 -160 l-83 -58 0 -414 c0 -227 2
-413 5 -413 5 0 171 117 433 306 249 178 794 570 912 655 80 57 156 112 170
122 127 89 372 275 445 336 136 114 355 332 465 461 567 665 894 1412 1007
2300 15 118 17 265 20 1146 l4 1011 -332 219 c-182 120 -336 221 -340 222 -5
2 -9 -515 -9 -1155z"/>
</g>
</svg>
