<?xml version="1.0" encoding="utf-8"?>
<!-- Generator: Adobe Illustrator 19.2.1, SVG Export Plug-In . SVG Version: 6.00 Build 0)  -->
<svg version="1.1" id="layer" xmlns="http://www.w3.org/2000/svg" xmlns:xlink="http://www.w3.org/1999/xlink" x="0px" y="0px"
	 viewBox="0 0 652 652" style="enable-background:new 0 0 652 652;" xml:space="preserve">
<style type="text/css">
	.st0{fill:#969696;}
	.st1{fill:#014289;}
	.st2{fill:#FFFFFF;}
	.st3{fill:#245B98;}
	.st4{fill:#7899BD;}
</style>
<g>
	<path class="st0" d="M333,367.6L333,367.6l0.3,0.1l1.1,1.1l1.1,1.1l0,0.7c-2.3,2.2-5.2,3.6-8.3,4l-0.4,0.5l0,4.4l0.4,0.5
		c3,0.5,5.8,1.8,8.2,4l0,0.7l-1.1,1.1l-1.1,1.1l-0.6,0c-0.5-0.4-1-0.8-1.5-1.2c-1.9-1.2-4.1-1.9-6.3-1.9c-2.2,0-4.4,0.6-6.3,1.9
		c-0.5,0.3-1,0.7-1.5,1.2l-0.6,0l-1.1-1.1l-1.1-1.1l0-0.7c2.3-2.2,5.2-3.5,8.2-4l0.4-0.5l0-4.4l-0.4-0.5c-3-0.5-5.9-1.9-8.1-4l0-0.7
		l2.3-2.3l0.6,0c0.5,0.4,1,0.8,1.5,1.2c1.8,1.2,4,1.9,6.3,1.9c2.3,0,4.4-0.7,6.3-1.9c0.5-0.3,1-0.7,1.5-1.2L333,367.6"/>
</g>
<g>
	<path class="st1" d="M211,301.2L211,301.2c1.8,0,3.9,0.2,5.9,0.2c2.9,0,5.8-0.3,7.9-1.9c3.2-2.4,4.5-6,4.5-9.6
		c0-6.7-4-9.5-10.9-9.5c-1.6,0-5.2,0.1-7.3,0.4V301.2 M211,331.5L211,331.5h5.2c5.7,0,13.8-4.5,13.8-12.2c0-9-6.2-12-15.5-12
		c-1.1,0-2.3,0-3.5,0.1V331.5 M219.4,335.7h-24v-61.6h26.8c10.5,0,20.7,3.1,20.7,13.9c0,8.7-5.9,13.5-14.7,14.6v0.8
		c7.7,0.6,16.3,3.9,16.3,15.3C244.5,331.5,231.6,335.7,219.4,335.7"/>
	<path class="st1" d="M303.3,335.7h-16.9c0,0-15.5-28.6-17.8-32c0.5,0,0.9,0,1.4,0c7.8,0,13.8-3.6,13.8-12.1c0-1.5-0.2-3.3-0.6-5.1
		c-1.4-6.2-7.2-7-12.7-7c-1.8,0-3.5,0.1-5,0.1v56.1c-1.3-0.1-4.1-0.1-6.9-0.1c-2.8,0-5.6,0-6.9,0.1v-61.5c0,0,6-0.1,13.2-0.1
		c9.1,0,20.1,0.2,22.5,1.2c6.9,2.6,9.8,8,9.8,14c0,8.7-4.3,14.2-13.7,16c5.6,8.5,9.8,16.7,15.9,24.9L303.3,335.7"/>
	<path class="st1" d="M489.2,335.7h-16.9c0,0-15.6-28.6-17.8-32c0.5,0,1,0,1.4,0c7.8,0,13.8-3.6,13.8-12.1c0-1.5-0.2-3.3-0.6-5.1
		c-1.4-6.2-7.2-7-12.7-7c-1.8,0-3.5,0.1-5.1,0.1v56.1c-1.3-0.1-4.1-0.1-6.9-0.1c-2.8,0-5.7,0-6.9,0.1v-61.5c0,0,6-0.1,13.2-0.1
		c9.1,0,20,0.2,22.5,1.2c6.9,2.6,9.8,8,9.8,14c0,8.7-4.3,14.2-13.7,16c5.6,8.5,9.7,16.7,15.8,24.9L489.2,335.7"/>
	<path class="st1" d="M357.1,337.4L357.1,337.4c-18.7,0-32.8-11.9-32.8-30.3c0-23.5,15.7-34.2,34.7-34.2c5.7,0,14.4,2,19.4,4.8
		c-0.8,3.1-1.3,6.1-2,9.3h-1.3c-3-4.5-9.6-8.2-15-8.2c-0.5,0-0.9,0-1.3,0.1c-15.1,1.8-20.1,13.7-20.1,26.9
		c0,15.4,7.3,26.2,20.8,26.2c5.4,0,11.2-1.8,15.1-5.6l1.2,0.5l-2.8,7.3C367.8,337,363,337.4,357.1,337.4"/>
	<path class="st1" d="M392.6,312L392.6,312h16.3l-7.9-20.8L392.6,312 M432.7,336.1c-1.3-0.1-4.5-0.1-7.7-0.1c-3.2,0-6.4,0-7.7,0.1
		c-2.1-6.6-3.9-12.7-6.3-18.6h-20.8c-2.3,6.8-4.6,12.3-6.3,18.5c-0.7,0-2.5-0.1-4.2-0.1c-1.8,0-3.5,0-4.2,0.1l25.5-61.9h6.8
		L432.7,336.1"/>
	<path class="st1" d="M506.2,330.2L506.2,330.2h7.6c12.4,0,21.7-6.2,21.7-27.3c0-16.9-7.9-23.6-20.6-23.6h-8.8V330.2 M517.9,335.5
		h-25v-61.4h30.6c19.2,0.7,27,14.1,27,29C550.4,323.4,536.2,335.5,517.9,335.5"/>
</g>
<g>
	<rect x="305.6" y="274.1" class="st1" width="14.7" height="61.6"/>
	<path class="st1" d="M100.9,249.7c-46.3,0-80.4,24.2-80.4,54.5c0,30.3,34.1,53.8,80.4,53.8c46.3,0,79.3-23.5,79.3-53.8
		C180.2,273.9,147.3,249.7,100.9,249.7"/>
</g>
<g>
	<rect x="97.2" y="283.8" class="st2" width="6.4" height="9.2"/>
	<path class="st2" d="M106,332.3v-21.7c0,0,0.2-2.8-1.5-4.6c-1-1.1-2.5-1.6-4.5-1.6c-5.3,0-5.6,6.1-5.7,6.4v21.7H49.9l7-37.4l-5-6.8
		V270H88v21h-3.7v-17.2H71.7v10.2h-3.7v-10.2H55.6v13.4l5.3,7.2l-6.5,34.6h36.1v-18.1c0.1-3.5,2.3-10.1,9.4-10.1
		c3.1,0,5.6,0.9,7.3,2.8c2.6,2.8,2.5,6.7,2.5,7.3v17.7h36.6l-6.4-34.5l4.8-7.2v-13.1h-12.1v10.2h-3.7v-10.2h-12.7V291h-3.8v-21h36
		v18l-4.5,6.8l7,37.5H106z"/>
</g>
<g>
	<polygon class="st3" points="195.9,361.2 197.8,361.2 207.3,385.3 216.8,361.2 218.7,361.2 208.2,387.6 206.4,387.6 	"/>
	<path class="st3" d="M219.4,377.7c0-6.7,2.6-10.1,9.1-10.1c6.5,0,9.1,3.4,9.1,10.1c0,6.7-2.6,10.1-9.1,10.1
		C222,387.8,219.4,384.4,219.4,377.7 M235.8,377.7c0-5.6-2.1-8.4-7.3-8.4c-5.2,0-7.3,2.9-7.3,8.4c0,5.6,2,8.4,7.3,8.4
		C233.8,386.2,235.8,383.3,235.8,377.7"/>
	<path class="st3" d="M240,368.1h3.6l0.3-6.2l1.5-0.2v6.5h5.6v1.6h-5.6v13c0,1.9,0.3,3.2,3.1,3.2h2.5v1.6l-2.7,0
		c-4.1,0-4.7-1.8-4.7-4.7v-13.1H240V368.1z"/>
	<path class="st3" d="M255.1,368.1l1.4-0.1l0.2,3.3c0.7-1.9,3.1-3.6,6.9-3.6v1.8c-4.8,0-6.7,3-6.7,7.1v10.8h-1.8V368.1z"/>
	<path class="st3" d="M265.9,377.7c0-5.7,1.6-10.1,8.9-10.1c7.6,0,7.8,5.1,7.8,10.5h-15c0,4.7,1.2,8.2,7.3,8.2
		c3.3,0,4.8-0.9,6.3-2.1l1,1.3c-1.8,1.3-3.9,2.3-7.3,2.3C267.3,387.8,265.9,383.4,265.9,377.7 M267.6,376.4h13.2
		c-0.2-3.9-0.4-7.2-6.1-7.2C269.3,369.2,267.9,372.2,267.6,376.4"/>
	<path class="st1" d="M292.2,377.5c0-5.6,1.8-10.4,9.9-10.4c8.4,0,8.7,5.8,8.5,12.1h-14.4c0.2,3.1,1.5,5.1,5.9,5.1
		c3.2,0,4.7-0.8,6.2-1.9l2.2,2.9c-2.3,1.7-4.6,2.6-8.4,2.6C293.8,387.9,292.2,383.2,292.2,377.5 M296.2,375.7h10.5
		c-0.2-2.8-0.5-4.9-4.7-4.9C297.8,370.8,296.5,372.7,296.2,375.7"/>
	<path class="st1" d="M340.3,367.9l3.2-0.2l0.4,1.9c1.1-1.5,3.2-2.4,7.6-2.4c6.7,0,8.5,4.4,8.5,10.4c0,5.9-1.8,10.3-8.7,10.3
		c-3.9,0-5.8-0.7-6.8-2.2v7.7h-4.1V367.9z M355.7,377.6c0-3.9-1-6.5-5.2-6.5c-4.4,0-6,1.8-6,6.5c0,4.7,1.5,6.4,6,6.4
		C354.6,384.1,355.7,381.5,355.7,377.6"/>
	<path class="st1" d="M362.9,377.5c0-5.6,1.8-10.4,9.9-10.4c8.4,0,8.6,5.8,8.5,12.1h-14.4c0.2,3.1,1.5,5.1,5.9,5.1
		c3.2,0,4.7-0.8,6.2-1.9l2.2,2.9c-2.3,1.7-4.6,2.6-8.4,2.6C364.5,387.9,362.9,383.2,362.9,377.5 M366.9,375.7h10.5
		c-0.2-2.8-0.5-4.9-4.7-4.9C368.5,370.8,367.2,372.7,366.9,375.7"/>
	<path class="st1" d="M385.2,367.9l3.2-0.2l0.4,2.3c0.8-1.3,3.2-2.4,6.6-2.5v4.1c-4.8,0-6.1,2.3-6.1,5.7v10.2h-4.1V367.9z"/>
	<path class="st1" d="M397.8,367.6h3.5l0.7-5.3l3.2-0.7v6h5.1v3.8h-5.1v9.8c0,1.7,0.2,2.7,2.8,2.7h2.3v3.7c-0.6,0-2.4,0-3.1,0
		c-4.9,0-6.1-1.8-6.1-5.7v-10.4h-3.4V367.6z"/>
	<path class="st3" d="M419.3,382.1c0-5.5,3.5-7,13.1-7h1.3c0-4.1-0.7-5.8-5.7-5.8c-2.5,0-4.6,0.9-5.9,1.7l-1-1.4c1.2-0.9,4-2,7-2
		c6.4,0,7.3,2.3,7.3,7.9v7.8c0,2.3,0.1,2.6,2.1,2.6v1.6c-0.1,0.1-0.4,0.1-0.7,0.1c-2.3,0-3-1.1-3-3.3c-1.2,2.4-3.3,3.6-7.9,3.6
		C420.7,387.9,419.3,385.4,419.3,382.1 M433.7,378.5v-1.7h-1.2c-8.9,0-11.4,1.1-11.4,5.2c0,2.7,1.2,4.2,5.1,4.2
		C431.5,386.3,433.7,383.8,433.7,378.5"/>
	<path class="st3" d="M441.3,379.9v-11.8h1.8v11.8c0,3.4,0,6.3,6.2,6.3c6.2,0,6.1-2.9,6.1-6.4v-11.7h1.8v11.7c0,4.7-0.3,8.1-7.8,8.1
		C441.7,387.9,441.3,384.5,441.3,379.9"/>
	<path class="st3" d="M483.7,384.3c-1.3,2.5-3.3,3.5-7.7,3.5c-6.4,0-8.3-3.9-8.3-10.1c0-6.2,1.9-10.1,8.3-10.1c4.5,0,6.6,1,7.8,3.4
		l0.3-3.4l1.3,0.1v25.5h-1.8V384.3z M483.7,377.7c0-6.5-2.1-8.4-7.4-8.4c-5.2,0-6.7,3.1-6.7,8.4c0,5.3,1.5,8.4,6.7,8.4
		C481.5,386.1,483.7,384.1,483.7,377.7"/>
	<path class="st3" d="M490.9,379.9v-11.8h1.8v11.8c0,3.4,0,6.3,6.2,6.3c6.2,0,6.1-2.9,6.1-6.4v-11.7h1.8v11.7c0,4.7-0.3,8.1-7.8,8.1
		C491.3,387.9,490.9,384.5,490.9,379.9"/>
	<path class="st3" d="M511.2,377.7c0-6.7,2.6-10.1,9.1-10.1c6.5,0,9.1,3.4,9.1,10.1c0,6.7-2.6,10.1-9.1,10.1
		C513.8,387.8,511.2,384.4,511.2,377.7 M527.6,377.7c0-5.6-2.1-8.4-7.3-8.4c-5.2,0-7.3,2.9-7.3,8.4c0,5.6,2,8.4,7.3,8.4
		C525.6,386.2,527.6,383.3,527.6,377.7"/>
	<path class="st3" d="M531.8,368.1h3.6l0.3-6.2l1.5-0.2v6.5h5.6v1.6h-5.6v13c0,1.9,0.3,3.2,3.1,3.2h2.5v1.6l-2.7,0
		c-4.1,0-4.7-1.8-4.7-4.7v-13.1h-3.6V368.1z"/>
	<path class="st3" d="M547,361.8h1.8v3.4H547V361.8z M547,368.1h1.8v19.4H547V368.1z"/>
	<path class="st3" d="M553.5,377.7c0-6.2,1.9-10.1,8.3-10.1c4.4,0,6.6,1,7.7,3.5v-11.1h1.8v27.4l-1.4,0.1l-0.2-3.3
		c-1.3,2.6-3.4,3.6-7.9,3.6C555.4,387.8,553.5,383.9,553.5,377.7 M569.5,377.7c0-6.5-2.1-8.4-7.4-8.4c-5.2,0-6.7,3.1-6.7,8.4
		c0,5.3,1.5,8.4,6.7,8.4C567.3,386.1,569.5,384.1,569.5,377.7"/>
	<path class="st3" d="M576.8,361.8h1.8v3.4h-1.8V361.8z M576.8,368.1h1.8v19.4h-1.8V368.1z"/>
	<path class="st3" d="M583.3,377.7c0-5.7,1.6-10.1,8.9-10.1c7.6,0,7.8,5.1,7.8,10.5h-15c0,4.7,1.2,8.2,7.3,8.2
		c3.3,0,4.8-0.9,6.3-2.1l1,1.3c-1.8,1.3-3.9,2.3-7.3,2.3C584.8,387.8,583.3,383.4,583.3,377.7 M585.1,376.4h13.2
		c-0.2-3.9-0.4-7.2-6.1-7.2C586.8,369.2,585.3,372.2,585.1,376.4"/>
	<path class="st3" d="M604.7,368.1l1.4-0.1l0.2,2.7c0.8-1.7,2.6-3.2,7.2-3.2c6.4,0,7,3.2,7,8v11.9h-1.8v-11.7c0-3.8-0.3-6.5-5.6-6.5
		c-5.6,0-6.7,3-6.7,7.1v11.1h-1.8V368.1z"/>
</g>
<g>
	<path class="st4" d="M333,367.6L333,367.6l-0.3,0.1c-0.5,0.4-1,0.8-1.5,1.2c-1.9,1.2-4,1.9-6.3,1.9c-2.3,0-4.4-0.7-6.3-1.9
		c-0.5-0.3-1-0.7-1.5-1.2l-0.6,0l-2.3,2.3l0,0.7c2.3,2.1,5.1,3.5,8.1,4l0.4,0.5l0,4.4l-0.4,0.5c-3,0.5-5.9,1.8-8.2,4l0,0.7l1.1,1.1
		l1.1,1.1l0.6,0c0.5-0.4,1-0.8,1.5-1.2c1.9-1.2,4.1-1.9,6.3-1.9c2.2,0,4.4,0.6,6.3,1.9c0.5,0.3,1,0.7,1.5,1.2l0.6,0l1.1-1.1l1.1-1.1
		l0-0.7c-2.3-2.2-5.2-3.5-8.2-4l-0.4-0.5l0-4.4l0.4-0.5c3.1-0.5,5.9-1.9,8.3-4l0-0.7l-1.1-1.1l-1.1-1.1L333,367.6"/>
</g>
</svg>
