<svg xmlns="http://www.w3.org/2000/svg" width="32.594" height="32.594" viewBox="0 0 32.594 32.594">
  <path id="Icon_awesome-phone-alt" data-name="Icon awesome-phone-alt" d="M31.665,23.033l-7.13-3.056a1.528,1.528,0,0,0-1.783.439l-3.158,3.858a23.6,23.6,0,0,1-11.28-11.28l3.858-3.158a1.524,1.524,0,0,0,.439-1.783L9.556.924A1.538,1.538,0,0,0,7.8.039L1.184,1.567A1.528,1.528,0,0,0,0,3.056,29.536,29.536,0,0,0,29.539,32.595a1.528,1.528,0,0,0,1.49-1.184l1.528-6.621a1.546,1.546,0,0,0-.892-1.757Z" transform="translate(0 0)" fill="#FFF500"/>
</svg>
