<svg xmlns="http://www.w3.org/2000/svg" version="1.1" xmlns:xlink="http://www.w3.org/1999/xlink" xmlns:svgjs="http://svgjs.dev/svgjs" viewBox="0 0 8.97067584399613 2.93670367602738"><g transform="matrix(1,0,0,1,2.9224047304246925,0.96585183801369)"><g><path d=" M 0.09 1.005 L 0.09 0.9809999999999999 L 0.2115 0.9209999999999999 L 0.2115 0.09899999999999987 L 0.09 0.038999999999999924 L 0.09 0.014999999999999902 L 0.51 0.014999999999999902 Q 0.687 0.014999999999999902 0.79425 0.0794999999999999 Q 0.9015 0.1439999999999999 0.9015 0.28349999999999986 Q 0.9015 0.3659999999999999 0.8452500000000001 0.42974999999999985 Q 0.789 0.4934999999999998 0.6930000000000001 0.5302499999999999 Q 0.597 0.567 0.47400000000000003 0.567 L 0.369 0.567 L 0.369 0.9209999999999999 L 0.507 0.9809999999999999 L 0.507 1.005 L 0.09 1.005 M 0.369 0.09749999999999992 L 0.369 0.48749999999999993 L 0.483 0.48749999999999993 Q 0.6015 0.48749999999999993 0.669 0.4334999999999999 Q 0.7365 0.37949999999999984 0.7365 0.2954999999999999 Q 0.7365 0.1904999999999999 0.66825 0.1439999999999999 Q 0.6 0.09749999999999992 0.47250000000000003 0.09749999999999992 L 0.369 0.09749999999999992 M 1.069480224609375 1.005 L 1.069480224609375 0.9809999999999999 L 1.192480224609375 0.9209999999999999 L 1.192480224609375 0.09899999999999987 L 1.069480224609375 0.038999999999999924 L 1.069480224609375 0.014999999999999902 L 1.469980224609375 0.014999999999999902 L 1.469980224609375 0.038999999999999924 L 1.348480224609375 0.09899999999999987 L 1.348480224609375 0.9209999999999999 L 1.469980224609375 0.9809999999999999 L 1.469980224609375 1.005 L 1.069480224609375 1.005 M 1.656009521484375 1.005 L 1.656009521484375 0.9809999999999999 L 1.777509521484375 0.9209999999999999 L 1.777509521484375 0.09899999999999987 L 1.656009521484375 0.038999999999999924 L 1.656009521484375 0.014999999999999902 L 2.056509521484375 0.014999999999999902 L 2.056509521484375 0.038999999999999924 L 1.935009521484375 0.09899999999999987 L 1.935009521484375 0.9209999999999999 L 2.056509521484375 0.9809999999999999 L 2.056509521484375 1.005 L 1.656009521484375 1.005 M 1.935009521484375 0.49949999999999983 L 2.349009521484375 0.08999999999999986 L 2.242509521484375 0.038999999999999924 L 2.242509521484375 0.014999999999999902 L 2.5665095214843747 0.014999999999999902 L 2.5665095214843747 0.038999999999999924 L 2.472009521484375 0.0764999999999999 L 2.0880095214843752 0.45299999999999985 L 2.550009521484375 0.9404999999999999 L 2.644509521484375 0.9809999999999999 L 2.644509521484375 1.005 L 2.400009521484375 1.005 L 1.935009521484375 0.49949999999999983 M 3.2085205078125 1.0199999999999998 Q 3.0540205078125 1.0199999999999998 2.9415205078125 0.9569999999999999 Q 2.8290205078125 0.8939999999999999 2.7675205078125 0.7844999999999999 Q 2.7060205078125 0.6749999999999998 2.7060205078125 0.5354999999999999 Q 2.7060205078125 0.4274999999999999 2.7480205078125 0.3314999999999999 Q 2.7900205078124998 0.23549999999999993 2.8627705078125 0.16049999999999986 Q 2.9355205078125 0.08549999999999991 3.0300205078125 0.042749999999999844 Q 3.1245205078125 -2.220446049250313e-16 3.2310205078125 -2.220446049250313e-16 Q 3.3075205078125 -2.220446049250313e-16 3.3600205078125 0.009749999999999925 Q 3.4125205078125003 0.01949999999999985 3.4537705078125 0.03524999999999989 Q 3.4950205078125 0.05099999999999982 3.5370205078125 0.07199999999999984 L 3.5460205078125 0.33899999999999986 L 3.5190205078125 0.33899999999999986 L 3.4155205078125 0.1439999999999999 Q 3.3645205078125002 0.10799999999999987 3.3232705078125 0.09149999999999991 Q 3.2820205078124998 0.07499999999999984 3.2310205078125 0.07499999999999984 Q 3.1275205078125 0.07499999999999984 3.0450205078125 0.1289999999999999 Q 2.9625205078125 0.18299999999999983 2.9152705078125 0.2782499999999999 Q 2.8680205078125 0.37349999999999983 2.8680205078125 0.4979999999999999 Q 2.8680205078125 0.6375 2.9137705078125 0.73725 Q 2.9595205078125 0.8369999999999999 3.0375205078125 0.8894999999999998 Q 3.1155205078125 0.942 3.2100205078125 0.942 Q 3.2880205078125 0.942 3.3412705078125002 0.9209999999999999 Q 3.3945205078125 0.8999999999999999 3.4365205078125003 0.8714999999999999 L 3.5370205078125 0.7034999999999999 L 3.5625205078125 0.7034999999999999 L 3.5445205078125 0.9449999999999998 Q 3.4785205078125 0.9779999999999999 3.4035205078125 0.9989999999999999 Q 3.3285205078124998 1.0199999999999998 3.2085205078125 1.0199999999999998 M 3.781497802734375 1.005 L 3.781497802734375 0.9809999999999999 L 3.902997802734375 0.9209999999999999 L 3.902997802734375 0.09899999999999987 L 3.781497802734375 0.038999999999999924 L 3.781497802734375 0.014999999999999902 L 4.534497802734375 0.014999999999999902 L 4.534497802734375 0.2729999999999999 L 4.510497802734375 0.2729999999999999 L 4.412997802734375 0.09749999999999992 L 4.060497802734375 0.09749999999999992 L 4.060497802734375 0.45299999999999985 L 4.309497802734375 0.45299999999999985 L 4.385997802734375 0.32699999999999985 L 4.409997802734375 0.32699999999999985 L 4.409997802734375 0.6584999999999999 L 4.385997802734375 0.6584999999999999 L 4.309497802734375 0.5354999999999999 L 4.060497802734375 0.5354999999999999 L 4.060497802734375 0.9224999999999999 L 4.4534978027343755 0.9224999999999999 L 4.552497802734375 0.7244999999999999 L 4.576497802734375 0.7244999999999999 L 4.576497802734375 1.005 L 3.781497802734375 1.005 M 4.76999267578125 1.005 L 4.76999267578125 0.9809999999999999 L 4.89149267578125 0.9209999999999999 L 4.89149267578125 0.09899999999999987 L 4.76999267578125 0.038999999999999924 L 4.76999267578125 0.014999999999999902 L 5.18549267578125 0.014999999999999902 L 5.18549267578125 0.038999999999999924 L 5.04899267578125 0.09899999999999987 L 5.04899267578125 0.9224999999999999 L 5.40449267578125 0.9224999999999999 L 5.51099267578125 0.6644999999999999 L 5.53499267578125 0.6644999999999999 L 5.53499267578125 1.005 L 4.76999267578125 1.005" fill="#382d5e" fill-rule="nonzero"></path></g><g></g><g clip-path="url(#SvgjsClipPath1002)"><g clip-path="url(#SvgjsClipPath1000bda9fa98-5f7b-46e1-b60d-5664a8fbb084)"><path d=" M -2.467425053153624 1.1191547662313572 L -2.289292063525675 1.1191547662313572 L -2.289292063525675 1.2973336191419065 C -2.289292063525675 1.3080863289026268 -2.285020566204973 1.318398635665908 -2.277417252217037 1.326001949653842 C -2.2698139382291016 1.333605263641779 -2.2595016314658207 1.3378767609624802 -2.248748921705101 1.3378767609624802 L -2.070615932077153 1.3378767609624802 L -2.070615932077153 1.5160097505904317 C -2.070615932077153 1.5267624603511487 -2.0663444347564504 1.53707476711443 -2.0587411207685147 1.5446780811023644 C -2.0511378067805794 1.552281395090301 -2.0408255000172986 1.5565528924110053 -2.0300727902565794 1.5565528924110053 L -0.4404055519727663 1.5565528924110053 C -0.4296528422120467 1.5565528924110053 -0.4193405354487658 1.552281395090301 -0.4117372214608306 1.5446780811023644 C -0.4041339074728949 1.53707476711443 -0.3998624101521928 1.5267624603511487 -0.3998624101521928 1.5160097505904317 L -0.3998624101521928 -0.07365748769338454 C -0.3998624101521928 -0.08441019745410172 -0.40413390747289535 -0.09472250421738315 -0.411737221460831 -0.10232581820531711 C -0.41934053544876626 -0.10992913219325406 -0.4296528422120476 -0.11420062951395815 -0.44040555197276676 -0.11420062951395815 L -0.6186761314485223 -0.11420062951395815 L -0.6186761314485223 -0.2923336191419066 C -0.6186761314485223 -0.30308632890262677 -0.6229476287692248 -0.3133986356659082 -0.6305509427571603 -0.32100194965384216 C -0.6381542567450962 -0.3286052636417791 -0.6484665635083768 -0.3328767609624802 -0.6592192732690962 -0.3328767609624802 L -0.8373522628970445 -0.3328767609624802 L -0.8373522628970445 -0.5110097505904316 C -0.8373522628970445 -0.5217624603511488 -0.841623760217747 -0.5320747671144302 -0.8492270742056824 -0.5396780811023643 C -0.8568303881936181 -0.5472813950903012 -0.8671426949568988 -0.5515528924110052 -0.8778954047176184 -0.5515528924110052 L -2.467425053153624 -0.5515528924110052 C -2.4781777629143438 -0.5515528924110052 -2.488490069677624 -0.5472813950903012 -2.496093383665559 -0.5396780811023643 C -2.503696697653495 -0.5320747671144302 -2.5079681949741968 -0.5217624603511488 -2.5079681949741968 -0.5110097505904316 L -2.5079681949741968 1.0786116244107806 C -2.5079681949741968 1.0893643341715007 -2.5036966976534942 1.0996766409347822 -2.496093383665558 1.107279954922719 C -2.488490069677622 1.1148832689106531 -2.4781777629143407 1.1191547662313572 -2.46742505315362 1.1191547662313572 Z M -0.618538541600715 1.2973336191419065 L -0.618538541600715 -0.033114345872810924 L -0.4809486937933394 -0.033114345872810924 L -0.4809486937933394 1.4754666087698551 L -1.9896672382838136 1.4754666087698551 L -1.9896672382838136 1.337876760962477 L -0.6592192732690956 1.337876760962477 C -0.6368279143313667 1.337876760962477 -0.6186761314485234 1.3197249780796365 -0.6186761314485223 1.2973336191419065 Z M -0.8372146730492369 1.0786116244107835 L -0.8372146730492369 -0.251790477321333 L -0.6996248252418615 -0.251790477321333 L -0.6996248252418615 1.2567904773213359 L -2.2083433697323356 1.2567904773213359 L -2.2083433697323356 1.1192006295139612 L -0.8778954047176175 1.1192006295139612 C -0.8671347439176615 1.119200636398971 -0.856815480637763 1.1149228439439693 -0.8492108468952266 1.1073096076745776 C -0.8416062131526902 1.099696371405183 -0.8373400902038288 1.089372278325733 -0.8373522628970445 1.0786116244107835 Z M -2.4270195011808577 -0.47051247205245894 L -0.9184385465381908 -0.47051247205245894 L -0.9184385465381908 1.0380684825902098 L -2.4270195011808577 1.0380684825902098 Z" fill="#ffc632" transform="matrix(1,0,0,1,0,0)" fill-rule="nonzero"></path></g></g></g><defs><clipPath id="SvgjsClipPath1002"><path d=" M -2.5081057848220043 -0.5515528924110022 h 2.1081057848220044 v 2.1081057848220044 h -2.1081057848220044 Z"></path></clipPath><clipPath id="SvgjsClipPath1000bda9fa98-5f7b-46e1-b60d-5664a8fbb084"><path d=" M -2.5081057848220043 -0.5515528924110022 L -0.3999999999999999 -0.5515528924110022 L -0.3999999999999999 1.5565528924110021 L -2.5081057848220043 1.5565528924110021 Z"></path></clipPath></defs></svg>